<svg width="217" height="232" viewBox="0 0 217 232" fill="none" xmlns="http://www.w3.org/2000/svg">
<path d="M211.367 55.8565C211.966 56.6171 212.082 57.6518 211.666 58.526L208.054 66.1106L201.962 75.4002C199.54 78.7718 196.595 81.7358 193.24 84.1806L187.466 88.3881L187 39.9999L201.661 47.7595C205.425 49.7522 208.732 52.5102 211.367 55.8565Z" fill="#3C0B6D"/>
<path d="M2.82452 58.4645C3.2229 57.582 4.08746 57.0019 5.05512 56.9678L13.4505 56.6725L24.5028 57.7907C28.6117 58.3843 32.5998 59.6288 36.3171 61.4776L42.7142 64.6592L0.000375865 87.3993L0.119997 70.8122C0.150715 66.5528 1.07194 62.3468 2.82452 58.4645Z" fill="#3C0B6D"/>
<path d="M4.53071 172.895C3.93764 172.129 3.83012 171.094 4.2533 170.223L7.92496 162.667L14.09 153.426C16.5391 150.074 19.5067 147.133 22.8813 144.715L28.6888 140.553L28.7716 188.944L14.1731 181.068C10.4243 179.046 7.13981 176.262 4.53071 172.895Z" fill="url(#paint0_linear_2660_77)"/>
<path d="M212.337 169.255C211.968 170.15 211.123 170.758 210.157 170.824L201.776 171.398L190.693 170.647C186.566 170.19 182.539 169.078 178.763 167.354L172.263 164.386L214.201 140.242L214.631 156.824C214.741 161.082 213.96 165.316 212.337 169.255Z" fill="url(#paint1_linear_2660_77)"/>
<path d="M107.1 3.20318C108.062 3.08692 109.006 3.52605 109.536 4.33617L114.137 11.365L118.904 21.3986C120.525 25.221 121.526 29.2771 121.869 33.4145L122.461 40.5346L80.886 15.7728L95.1369 7.28466C98.7965 5.10491 102.872 3.71465 107.1 3.20318Z" fill="url(#paint2_linear_2660_77)"/>
<path d="M109.54 228.789C108.584 228.943 107.623 228.541 107.062 227.752L102.189 220.909L97.0317 211.07C95.2628 207.314 94.1037 203.3 93.5981 199.179L92.7279 192.088L135.241 215.201L121.334 224.241C117.762 226.563 113.745 228.112 109.54 228.789Z" fill="#3C0B6D"/>
<path d="M0.0429688 134.292C0.0429688 125.996 4.5995 118.371 11.9053 114.44L22.1742 109.121L40.0562 99.7247L41.3672 99.1914C44.243 98.0215 47.3183 97.4199 50.423 97.4199C52.5688 97.4199 54.6829 97.9371 56.5863 98.9276L76.1744 109.121L65.9055 114.44L35.0988 131.991L28.371 135.892L19.1644 141.742C16.691 143.393 14.3758 145.27 12.2486 147.348L11.885 147.703C9.42556 150.106 7.20279 152.74 5.24743 155.568L1.81347 160.535L0.0429688 141.742V134.292Z" fill="#3C0B6D"/>
<path d="M72.4568 213.515C65.1077 209.649 60.4778 202.056 60.4051 193.753L60.4856 182.176L60.5068 161.954L60.646 160.545C60.9514 157.451 61.8527 154.446 63.3002 151.694C64.3006 149.793 65.7442 148.16 67.5088 146.934L85.6611 134.321L85.5806 145.898L86.7512 181.37L87.0663 189.149L87.9518 200.031C88.2599 202.992 88.8415 205.918 89.6891 208.771L89.8332 209.257C90.8132 212.556 92.1082 215.753 93.7004 218.804L96.4938 224.157L79.0372 216.977L72.4568 213.515Z" fill="url(#paint3_linear_2660_77)"/>
<path d="M36.3015 34.469C43.3725 30.1151 52.2643 29.9991 59.4465 34.1671L69.367 40.1344L86.7567 50.4552L87.8985 51.2929C90.405 53.132 92.532 55.4388 94.1621 58.086C95.2887 59.9157 95.9584 61.9898 96.1143 64.1329L97.7189 86.1784L87.7984 80.2111L56.6785 63.1459L49.8249 59.4543L40.0094 54.6717C37.3048 53.4284 34.4909 52.4383 31.6037 51.7139L31.1127 51.5907C27.7746 50.7532 24.3637 50.2386 20.9271 50.0541L14.8974 49.7304L29.97 38.3676L36.3015 34.469Z" fill="url(#paint4_linear_2660_77)"/>
<path d="M215.584 98.2094C215.366 106.511 210.604 114.021 203.189 117.758L192.77 122.806L174.624 131.73L173.299 132.228C170.389 133.323 167.295 133.843 164.187 133.762C162.039 133.706 159.936 133.133 158.056 132.093L138.716 121.39L149.134 116.342L180.432 99.6047L187.269 95.8821L196.638 90.2751C199.157 88.6894 201.524 86.8738 203.708 84.8517L204.08 84.5078C206.605 82.1698 208.9 79.5944 210.932 76.8171L214.498 71.9441L215.778 90.7765L215.584 98.2094Z" fill="url(#paint5_linear_2660_77)"/>
<path d="M143.26 16.0299C150.582 19.9466 155.16 27.5703 155.175 35.8744L155.015 47.4501L154.855 67.6713L154.706 69.0796C154.38 72.1712 153.458 75.1704 151.991 77.9118C150.978 79.8066 149.523 81.4295 147.75 82.6434L129.512 95.1308L129.672 83.5551L128.745 48.0753L128.483 40.2951L127.672 29.4065C127.385 26.4438 126.823 23.5141 125.995 20.6549L125.854 20.1687C124.897 16.863 123.624 13.657 122.053 10.5949L119.296 5.22252L136.703 12.5229L143.26 16.0299Z" fill="#3C0B6D"/>
<path d="M179.707 195.291C172.59 199.57 163.697 199.591 156.56 195.347L146.704 189.275L129.425 178.77L128.292 177.92C125.805 176.055 123.703 173.725 122.101 171.061C120.994 169.219 120.346 167.138 120.213 164.994L118.843 142.932L128.699 149.004L159.636 166.399L166.45 170.163L176.214 175.05C178.905 176.322 181.708 177.342 184.587 178.097L185.077 178.225C188.406 179.098 191.811 179.649 195.246 179.87L201.272 180.258L186.079 191.46L179.707 195.291Z" fill="#3C0B6D"/>
<defs>
<linearGradient id="paint0_linear_2660_77" x1="36.9508" y1="143.734" x2="6.40013" y2="162.937" gradientUnits="userSpaceOnUse">
<stop stop-color="#E7FF57"/>
<stop offset="0.520833" stop-color="#CB44BA"/>
<stop offset="1" stop-color="#3C0B6D"/>
</linearGradient>
<linearGradient id="paint1_linear_2660_77" x1="170.913" y1="155.637" x2="202.769" y2="172.586" gradientUnits="userSpaceOnUse">
<stop offset="0.125" stop-color="#E7FF57"/>
<stop offset="0.5" stop-color="#CB44BA"/>
<stop offset="1" stop-color="#3C0B6D"/>
</linearGradient>
<linearGradient id="paint2_linear_2660_77" x1="115.491" y1="45.9936" x2="114.687" y2="9.91757" gradientUnits="userSpaceOnUse">
<stop stop-color="#E7FF57"/>
<stop offset="0.520833" stop-color="#CB44BA"/>
<stop offset="1" stop-color="#3C0B6D"/>
</linearGradient>
<linearGradient id="paint3_linear_2660_77" x1="77.9783" y1="143.735" x2="75.6513" y2="202.509" gradientUnits="userSpaceOnUse">
<stop offset="0.208333" stop-color="#E7FF57"/>
<stop offset="0.625" stop-color="#CB44BA"/>
<stop offset="1" stop-color="#3C0B6D"/>
</linearGradient>
<linearGradient id="paint4_linear_2660_77" x1="93.5329" y1="74.7715" x2="44.1443" y2="42.8251" gradientUnits="userSpaceOnUse">
<stop offset="0.208333" stop-color="#E7FF57"/>
<stop offset="0.625" stop-color="#CB44BA"/>
<stop offset="1" stop-color="#3C0B6D"/>
</linearGradient>
<linearGradient id="paint5_linear_2660_77" x1="150.557" y1="124.117" x2="204.3" y2="100.212" gradientUnits="userSpaceOnUse">
<stop offset="0.208333" stop-color="#E7FF57"/>
<stop offset="0.625" stop-color="#CB44BA"/>
<stop offset="1" stop-color="#3C0B6D"/>
</linearGradient>
</defs>
</svg>
